<?xml version="1.0" encoding="UTF-8"?>
<svg width="1200pt" height="1200pt" version="1.1" viewBox="0 0 1200 1200" xmlns="http://www.w3.org/2000/svg">
 <path d="m966 411.6h-609.6c-6 0-10.801 4.8008-12 10.801 0 1.1992-3.6016 24-3.6016 58.801-19.199-4.8008-57.602-9.6016-84 9.6016-18 13.199-26.398 33.602-26.398 62.398 0 93.602 78 135.6 160.8 180l14.398 7.1992c26.398 43.199 61.199 82.801 111.6 114 2.3984 1.1992 3.6016 2.3984 6 2.3984h276c2.3984 0 4.8008-1.1992 6-2.3984 217.2-138 172.8-429.6 172.8-433.2-1.1992-6.0039-6-9.6016-12-9.6016zm-600 24h589.2c1.1992 14.398 3.6016 44.398 1.1992 82.801l-590.4-0.003906c-2.3984-38.398-1.1992-68.398 0-82.797zm-111.6 117.6c0-20.398 6-34.801 16.801-42 19.199-14.398 54-8.3984 69.602-4.8008 0 7.1992 1.1992 15.602 1.1992 22.801v1.1992c0 1.1992 0 2.3984 1.1992 3.6016 3.6016 49.199 15.602 110.4 42 168-72-38.398-130.8-75.602-130.8-148.8zm541.2 279.6h-268.8c-115.2-74.398-150-198-159.6-290.4h588c-8.3984 91.199-44.398 214.8-159.6 290.4z" fill="#fff"/>
</svg>
